<?xml version="1.0" encoding="utf-8"?>
<!-- Generator: Adobe Illustrator 16.0.0, SVG Export Plug-In . SVG Version: 6.00 Build 0)  -->
<!DOCTYPE svg PUBLIC "-//W3C//DTD SVG 1.1//EN" "http://www.w3.org/Graphics/SVG/1.1/DTD/svg11.dtd">
<svg version="1.1" xmlns="http://www.w3.org/2000/svg" xmlns:xlink="http://www.w3.org/1999/xlink" x="0px" y="0px" width="60px"
	 height="40px" viewBox="0 0 60 40" enable-background="new 0 0 60 40" xml:space="preserve">
<g id="Layer_2">
</g>
<g id="Layer_1">
	<path fill="none" stroke="#888888" stroke-miterlimit="10" d="M7.047,29.436l0.396,5.73c0,0,0.087,3.002,1.766,0
		c1.771-2.932,1.863-3.027,1.863-3.027"/>
	<path fill="none" stroke="#888888" stroke-miterlimit="10" d="M5.26,23.091l-3.745,3.444c0,0-0.961,0.761,0.199,1.109
		c1.19,0.355,4.838,1.332,4.838,1.332"/>
	<path fill="none" stroke="#888888" stroke-miterlimit="10" d="M5.432,22.5c0.106-0.177,0.241-8.688,0.241-8.688
		s0.27-1.52,1.347-0.277c1.079,1.242,2.501,2.87,2.501,2.87"/>
	<path fill="none" stroke="#888888" stroke-miterlimit="10" d="M42.879,30.107c6.308-1.983,18.688-7.16,15.584-16.573
		c-0.023-0.054-0.047-0.108-0.07-0.163C54.514,4.667,39.148,5.07,30.798,7.01C13.44,11.042,4.143,17.952,5.171,26.036
		c0.882,6.924,13.057,7.344,22.637,6.575"/>
	<path fill="none" stroke="#888888" stroke-miterlimit="10" d="M27.822,34h13.307c0,0,0.607-0.223,0.969-1.071
		c0.359-0.854,0.812-2.702,0.812-2.702s0.312-1.156-0.552-1.156c-1.195,0-9.143,0.127-12.917,2.392
		C25.662,33.723,27.822,34,27.822,34z"/>
</g>
</svg>
