<?xml version="1.0" encoding="utf-8"?>
<!-- Generator: Adobe Illustrator 16.0.0, SVG Export Plug-In . SVG Version: 6.00 Build 0)  -->
<!DOCTYPE svg PUBLIC "-//W3C//DTD SVG 1.1//EN" "http://www.w3.org/Graphics/SVG/1.1/DTD/svg11.dtd">
<svg version="1.1" id="Layer_1" xmlns="http://www.w3.org/2000/svg" xmlns:xlink="http://www.w3.org/1999/xlink" x="0px" y="0px"
	 width="24px" height="24px" viewBox="0 0 24 24" enable-background="new 0 0 24 24" xml:space="preserve">
<g id="Layer_1_1_">
</g>
<rect fill="none" width="24" height="24"/>
<path fill="#323232" d="M22.675,0H1.325C0.592,0,0,0.593,0,1.324v21.351C0,23.407,0.592,24,1.325,24h11.493v-9.294H9.692v-3.622
	h3.126V8.413c0-3.101,1.895-4.788,4.66-4.788c1.322,0,2.463,0.099,2.793,0.143v3.24l-1.918,0.001c-1.502,0-1.795,0.714-1.795,1.762
	v2.313h3.586l-0.465,3.622h-3.121V24h6.114C23.408,24,24,23.407,24,22.675V1.324C24,0.593,23.408,0,22.675,0"/>
</svg>
