<?xml version="1.0" encoding="utf-8"?>
<!-- Generator: Adobe Illustrator 16.0.0, SVG Export Plug-In . SVG Version: 6.00 Build 0)  -->
<!DOCTYPE svg PUBLIC "-//W3C//DTD SVG 1.1//EN" "http://www.w3.org/Graphics/SVG/1.1/DTD/svg11.dtd">
<svg version="1.1" xmlns="http://www.w3.org/2000/svg" xmlns:xlink="http://www.w3.org/1999/xlink" x="0px" y="0px" width="24px"
	 height="24px" viewBox="0 0 24 24" enable-background="new 0 0 24 24" xml:space="preserve">
<g id="Layer_1">
	<g>
		<g>
			<path fill-rule="evenodd" clip-rule="evenodd" fill="#282928" d="M12.112,13.638l-1.065-0.877
				c-0.153-0.153-0.312-0.332-0.475-0.538c-0.192-0.215-0.288-0.487-0.288-0.815c0-0.338,0.094-0.636,0.281-0.892
				c0.158-0.246,0.331-0.466,0.518-0.661c0.327-0.287,0.636-0.569,0.926-0.846c0.262-0.277,0.509-0.579,0.743-0.907
				c0.479-0.676,0.725-1.578,0.744-2.706c0-0.616-0.069-1.153-0.207-1.614c-0.168-0.461-0.36-0.861-0.577-1.2
				c-0.227-0.358-0.458-0.661-0.695-0.907c-0.247-0.236-0.468-0.416-0.665-0.539h1.936L15.229,0H8.95
				C8.116,0,7.224,0.097,6.271,0.292C5.31,0.517,4.381,1,3.49,1.737C2.19,2.998,1.54,4.402,1.54,5.95
				c0,1.281,0.459,2.404,1.376,3.367c0.876,1.036,2.15,1.563,3.821,1.584c0.316,0,0.653-0.021,1.009-0.062
				c-0.059,0.165-0.124,0.345-0.192,0.541c-0.079,0.185-0.118,0.417-0.118,0.695c0,0.465,0.102,0.861,0.31,1.191
				c0.177,0.341,0.378,0.66,0.604,0.959c-0.732,0.021-1.652,0.112-2.761,0.276c-1.119,0.193-2.188,0.583-3.204,1.166
				c-0.905,0.542-1.531,1.17-1.876,1.888c-0.356,0.716-0.534,1.365-0.534,1.948c0,1.197,0.547,2.227,1.642,3.085
				C2.702,23.509,4.344,23.979,6.542,24c2.627-0.041,4.637-0.671,6.03-1.891c1.344-1.179,2.015-2.533,2.015-4.06
				c-0.019-1.076-0.264-1.947-0.733-2.613C13.354,14.78,12.773,14.181,12.112,13.638z M8.189,10.042c-0.654,0-1.236-0.199-1.745-0.6
				C5.936,9.041,5.52,8.553,5.198,7.978c-0.665-1.232-0.997-2.419-0.997-3.56C4.181,3.556,4.409,2.775,4.884,2.077
				c0.564-0.668,1.271-1.012,2.123-1.033c0.643,0.021,1.211,0.21,1.707,0.571c0.485,0.379,0.875,0.873,1.173,1.478
				c0.633,1.264,0.949,2.518,0.949,3.76c0,0.288-0.022,0.642-0.067,1.063c-0.077,0.421-0.248,0.833-0.514,1.232
				C9.704,9.713,9.015,10.011,8.189,10.042z M11.426,21.696c-0.779,0.637-1.909,0.965-3.388,0.985
				c-1.649-0.021-2.949-0.391-3.899-1.108c-1-0.717-1.499-1.63-1.499-2.736c0-0.564,0.115-1.046,0.345-1.446
				c0.2-0.379,0.445-0.697,0.735-0.954c0.299-0.245,0.594-0.435,0.884-0.568c0.29-0.123,0.515-0.215,0.675-0.277
				c0.678-0.205,1.344-0.354,1.994-0.445c0.659-0.061,1.069-0.082,1.23-0.061c0.27,0,0.504,0.009,0.705,0.03
				c1.169,0.819,2.028,1.512,2.579,2.075c0.52,0.596,0.78,1.293,0.78,2.092C12.566,20.267,12.186,21.07,11.426,21.696z"/>
		</g>
	</g>
</g>
<g id="Isolation_Mode">
	<path fill-rule="evenodd" clip-rule="evenodd" fill="#282928" d="M19,6h2v8h-2V6z"/>
	<path fill-rule="evenodd" clip-rule="evenodd" fill="#282928" d="M24,9v2h-8V9H24z"/>
</g>
</svg>
