<?xml version="1.0" encoding="utf-8"?>
<!-- Generator: Adobe Illustrator 16.0.0, SVG Export Plug-In . SVG Version: 6.00 Build 0)  -->
<!DOCTYPE svg PUBLIC "-//W3C//DTD SVG 1.1//EN" "http://www.w3.org/Graphics/SVG/1.1/DTD/svg11.dtd">
<svg version="1.1" id="Layer_1" xmlns="http://www.w3.org/2000/svg" xmlns:xlink="http://www.w3.org/1999/xlink" x="0px" y="0px"
	 width="27px" height="24px" viewBox="0 0 27 24" enable-background="new 0 0 27 24" xml:space="preserve">
<path id="path2442" fill="#FFFAE1" d="M13.21,19.636h1.614c0,0,0.487-0.053,0.737-0.321c0.229-0.246,0.222-0.709,0.222-0.709
	s-0.032-2.165,0.972-2.483c0.992-0.314,2.264,2.092,3.612,3.017c1.02,0.701,1.795,0.548,1.795,0.548l3.605-0.051
	c0,0,1.886-0.114,0.992-1.598c-0.074-0.123-0.521-1.099-2.681-3.103c-2.262-2.099-1.959-1.76,0.765-5.389
	c1.658-2.21,2.322-3.56,2.114-4.138c-0.197-0.551-1.417-0.405-1.417-0.405l-4.06,0.025c0,0-0.302-0.042-0.525,0.092
	c-0.217,0.131-0.357,0.435-0.357,0.435s-0.643,1.71-1.5,3.165c-1.808,3.07-2.53,3.232-2.825,3.042
	c-0.688-0.445-0.516-1.785-0.516-2.738c0-2.974,0.45-4.214-0.879-4.536c-0.441-0.106-0.767-0.177-1.895-0.188
	c-1.449-0.015-2.674,0.004-3.369,0.344c-0.462,0.226-0.818,0.73-0.601,0.759c0.268,0.037,0.876,0.165,1.198,0.604
	c0.417,0.565,0.402,1.837,0.402,1.837s0.239,3.501-0.559,3.936C9.508,12.08,8.757,11.47,7.146,8.685
	C6.319,7.259,5.696,5.683,5.696,5.683S5.577,5.387,5.361,5.23C5.102,5.039,4.738,4.978,4.738,4.978L0.88,5.003
	c0,0-0.579,0.016-0.792,0.268c-0.189,0.224-0.014,0.687-0.014,0.687s3.02,7.066,6.44,10.628C9.649,19.851,13.21,19.636,13.21,19.636
	"/>
</svg>
